<?xml version="1.0" encoding="utf-8"?>
<svg version="1.1" id="Layer_1"
xmlns="http://www.w3.org/2000/svg"
xmlns:xlink="http://www.w3.org/1999/xlink"
width="516px" height="292px"
xml:space="preserve">
<g id="PathID_1" transform="matrix(1.69695, 0, 0, 1.69695, 153, 122.35)" opacity="1">
<path style="fill:#E5A41D;fill-opacity:1" d="M16.6 -5.6L23.55 0.7L31.6 7.3Q28.8 12.7 22.15 14Q17.65 14.85 9.15 13.8Q5.2 13.25 2.15 12.2L-2.45 10.45Q-8.05 8.4 -18.2 8.2Q-20.1 8.2 -17.1 6Q-14.45 4.1 -10.7 2.35Q-5.45 -0.1 3.35 0L7.8 0.1Q9.15 0.05 8.1 -0.6Q-0.1 -5.5 -8.7 -2.8Q-11.8 -1.8 -15.45 0.25L-20.9 3.75Q-25.95 6.9 -31.55 4.1Q-21.9 -5.7 -15.1 -9.9Q-5.75 -15.7 2 -13.9Q8.8 -12.35 16.6 -5.6" />
</g>
<g id="PathID_2" transform="matrix(1.69695, 0, 0, 1.69695, 153, 122.35)" opacity="1">
</g>
<g id="PathID_3" transform="matrix(1.69695, 0, 0, 1.69695, 153.55, 167.35)" opacity="1">
<path style="fill:#E5811D;fill-opacity:1" d="M18.25 -8.2Q20.15 -8.15 17.15 -6Q14.5 -4.05 10.75 -2.3Q5.45 0.2 -3.3 0.05L-7.75 -0.05Q-9.1 0 -8.1 0.6Q0.1 5.55 8.75 2.8Q12.45 1.7 20.9 -3.75Q26 -6.95 31.55 -4.05Q21.9 5.8 15.15 9.95Q5.8 15.7 -1.95 13.9Q-8.75 12.4 -16.55 5.6L-23.5 -0.7L-31.55 -7.25Q-28.8 -12.7 -22.1 -14Q-17.55 -14.8 -9.15 -13.75Q-5.15 -13.25 -2.15 -12.2L2.45 -10.45Q8.1 -8.3 18.25 -8.2" />
</g>
<g id="PathID_4" transform="matrix(1.69695, 0, 0, 1.69695, 153.55, 167.35)" opacity="1">
</g>
<g id="PathID_5" transform="matrix(0.3125, 0, 0, 0.3125, 280.75, 173.1)" opacity="1">
<path style="fill:#FF6C08;fill-opacity:1" d="M9.9 -34.9L35 -34.9L37.9 -25.65L35.6 -24.95Q34.55 -27.75 33.2 -29.2Q31.9 -30.7 30.3 -31.3Q28.15 -32.05 24.7 -32.05L18.25 -32.05L15.35 -19.3L19.35 -19.3Q21.9 -19.3 23.1 -19.85Q24.3 -20.4 25.15 -21.6Q26 -22.85 26.45 -25.2L28.9 -25.2L25.7 -11L23.25 -11Q23.6 -12.9 23.6 -13.65Q23.6 -14.65 23.05 -15.4Q22.55 -16.2 21.7 -16.55Q20.9 -16.9 18.65 -16.9L14.8 -16.9L11.95 -4.35L11.8 -3.45Q11.8 -3 12.2 -2.75Q12.45 -2.65 13.75 -2.65L19.3 -2.65Q23.4 -2.65 25.95 -3.5Q28.55 -4.4 30.35 -6.05Q32.15 -7.75 34.5 -11.9L36.7 -11L31.4 0L2 0L2.5 -2.1Q5.05 -2.1 5.75 -2.35Q6.5 -2.6 6.9 -3.15Q7.55 -4.05 7.9 -5.75L13.2 -28.95Q13.5 -30.2 13.5 -30.7Q13.5 -31.9 12.75 -32.35Q12 -32.8 10.25 -32.8L9.45 -32.8L9.9 -34.9" />
</g>
<g id="PathID_6" transform="matrix(0.3125, 0, 0, 0.3125, 280.75, 173.1)" opacity="1">
</g>
<g id="PathID_7" transform="matrix(0.3125, 0, 0, 0.3125, 293.6, 173.1)" opacity="1">
<path style="fill:#FF6C08;fill-opacity:1" d="M11.05 -34.9L21.85 -34.9L29.5 -8.4L34.2 -29.4Q34.45 -30.45 34.45 -30.9Q34.45 -31.8 33.7 -32.3Q33.15 -32.6 31.5 -32.6L30.4 -32.6L30.85 -34.9L43.05 -34.9L42.55 -32.6L41.6 -32.6Q39.85 -32.6 39.1 -32.3Q38.35 -32 37.9 -31.35Q37.5 -30.75 37.05 -28.9L30.5 0L27.6 0L18.15 -32.3L12.05 -5.6Q11.85 -4.7 11.85 -4.1Q11.85 -3.45 12.15 -2.95Q12.5 -2.5 13 -2.3Q13.55 -2.1 15.1 -2.1L15.95 -2.1L15.45 0L3.1 0L3.55 -2.1L4.65 -2.1Q6.35 -2.1 7.05 -2.4Q7.75 -2.7 8.25 -3.4Q8.75 -4.15 9.15 -6L14.4 -28.65Q14.65 -29.8 14.65 -30.6Q14.65 -31.7 13.9 -32.25Q13.4 -32.6 11.8 -32.6L10.6 -32.6L11.05 -34.9" />
</g>
<g id="PathID_8" transform="matrix(0.3125, 0, 0, 0.3125, 293.6, 173.1)" opacity="1">
</g>
<g id="PathID_9" transform="matrix(0.3125, 0, 0, 0.3125, 307.1, 173.1)" opacity="1">
<path style="fill:#FF6C08;fill-opacity:1" d="M36.25 -36L37.55 -25.65L35.1 -25.2Q34.55 -28.05 33.45 -29.65Q32.4 -31.25 30.85 -31.95Q29.35 -32.65 26.2 -32.65Q25.4 -32.65 25.1 -32.4Q24.8 -32.15 24.65 -31.2L18.75 -5.35Q18.55 -4.45 18.55 -3.85Q18.55 -3.25 18.9 -2.8Q19.25 -2.35 19.9 -2.2Q20.55 -2.1 22.6 -2.1L22.15 0L8.45 0L8.95 -2.1Q10.7 -2.1 11.55 -2.2Q12.4 -2.35 12.85 -2.7Q13.35 -3.05 13.65 -3.65Q14.15 -4.7 14.25 -5.3L20.1 -30.85Q20.25 -31.6 20.25 -32Q20.25 -32.3 19.95 -32.45Q19.7 -32.65 18.75 -32.65Q16.3 -32.65 14.55 -31.85Q12.85 -31.05 11 -29.1Q9.85 -27.85 7.95 -24.85L5.9 -26L11.3 -36L13.05 -36L13.05 -34.9L33.4 -34.9L34.4 -36L36.25 -36" />
</g>
<g id="PathID_10" transform="matrix(0.3125, 0, 0, 0.3125, 307.1, 173.1)" opacity="1">
</g>
<g id="PathID_11" transform="matrix(0.3125, 0, 0, 0.3125, 318.7, 173.1)" opacity="1">
<path style="fill:#FF6C08;fill-opacity:1" d="M9.9 -34.9L35 -34.9L37.9 -25.65L35.6 -24.95Q34.55 -27.75 33.2 -29.2Q31.9 -30.7 30.3 -31.3Q28.15 -32.05 24.7 -32.05L18.25 -32.05L15.35 -19.3L19.35 -19.3Q21.9 -19.3 23.1 -19.85Q24.3 -20.4 25.15 -21.6Q26 -22.85 26.45 -25.2L28.9 -25.2L25.7 -11L23.25 -11Q23.6 -12.9 23.6 -13.65Q23.6 -14.65 23.05 -15.4Q22.55 -16.2 21.7 -16.55Q20.9 -16.9 18.65 -16.9L14.8 -16.9L11.95 -4.35L11.8 -3.45Q11.8 -3 12.2 -2.75Q12.45 -2.65 13.75 -2.65L19.3 -2.65Q23.4 -2.65 25.95 -3.5Q28.55 -4.4 30.35 -6.05Q32.15 -7.75 34.5 -11.9L36.7 -11L31.4 0L2 0L2.5 -2.1Q5.05 -2.1 5.75 -2.35Q6.5 -2.6 6.9 -3.15Q7.55 -4.05 7.9 -5.75L13.2 -28.95Q13.5 -30.2 13.5 -30.7Q13.5 -31.9 12.75 -32.35Q12 -32.8 10.25 -32.8L9.45 -32.8L9.9 -34.9" />
</g>
<g id="PathID_12" transform="matrix(0.3125, 0, 0, 0.3125, 318.7, 173.1)" opacity="1">
</g>
<g id="PathID_13" transform="matrix(0.3125, 0, 0, 0.3125, 331.55, 173.1)" opacity="1">
<path style="fill:#FF6C08;fill-opacity:1" d="M9.9 -34.9L27.25 -34.9Q31.75 -34.9 33.95 -33.95Q36.2 -33.05 37.45 -31.2Q38.7 -29.4 38.7 -27Q38.7 -24.15 36.95 -21.7Q35.2 -19.25 32.35 -18Q29.55 -16.8 23.55 -16.65L30.5 -5.1Q31.05 -4.15 31.95 -3.2Q32.5 -2.55 33.3 -2.3Q34.15 -2.05 35.95 -2.1L35.5 0L28.45 0L18.9 -16.65L14.8 -16.65L12.25 -5.3Q12.05 -4.45 12.05 -3.9Q12.05 -3.3 12.45 -2.8Q12.85 -2.3 13.4 -2.2Q13.8 -2.1 16.15 -2.1L15.65 0L2 0L2.5 -2.1L3.25 -2.1Q5.15 -2.1 5.9 -2.4Q6.65 -2.7 7.1 -3.35Q7.55 -4 7.95 -5.9L13.15 -28.7Q13.45 -30.05 13.45 -30.8Q13.45 -31.9 12.7 -32.35Q12 -32.8 10.3 -32.8L9.4 -32.8L9.9 -34.9M18.3 -32.1L15.3 -19.05L22.15 -19.05Q27.05 -19.05 29.05 -19.85Q31.05 -20.65 32.35 -22.55Q33.65 -24.45 33.65 -26.85Q33.65 -28.6 32.8 -29.75Q32 -30.95 30.45 -31.5Q28.95 -32.1 25.4 -32.1L18.3 -32.1" />
</g>
<g id="PathID_14" transform="matrix(0.3125, 0, 0, 0.3125, 331.55, 173.1)" opacity="1">
</g>
<g id="PathID_15" transform="matrix(0.3125, 0, 0, 0.3125, 344.75, 173.1)" opacity="1">
<path style="fill:#FF6C08;fill-opacity:1" d="M9.85 -34.9L24.55 -34.9Q28.85 -34.9 31.05 -33.9Q33.3 -32.9 34.55 -30.95Q35.85 -29.05 35.85 -26.45Q35.85 -23.2 33.95 -20.35Q32.05 -17.55 28.75 -16.1Q25.9 -14.9 19.5 -14.9L14.35 -14.9L12.2 -5.45Q11.95 -4.45 11.95 -3.85Q11.95 -3.25 12.25 -2.85Q12.6 -2.45 13.1 -2.25Q13.65 -2.1 15.05 -2.1L16 -2.1L15.55 0L1.9 0L2.35 -2.1L3.45 -2.1Q5.55 -2.1 6.4 -2.8Q7.3 -3.55 7.8 -5.75L13.05 -28.85Q13.4 -30.25 13.4 -30.7Q13.4 -31.5 13 -32Q12.65 -32.5 12.1 -32.65Q11.65 -32.8 9.35 -32.8L9.85 -34.9M18.3 -32.1L14.95 -17.5L18.75 -17.5Q23.35 -17.5 25 -18Q27.5 -18.75 29.2 -21.05Q30.9 -23.35 30.9 -26.3Q30.9 -28.45 29.8 -29.85Q28.7 -31.25 26.95 -31.75Q25.8 -32.1 22.55 -32.1L18.3 -32.1" />
</g>
<g id="PathID_16" transform="matrix(0.3125, 0, 0, 0.3125, 344.75, 173.1)" opacity="1">
</g>
<g id="PathID_17" transform="matrix(0.3125, 0, 0, 0.3125, 356.35, 173.1)" opacity="1">
<path style="fill:#FF6C08;fill-opacity:1" d="M9.9 -34.9L27.25 -34.9Q31.75 -34.9 33.95 -33.95Q36.2 -33.05 37.45 -31.2Q38.7 -29.4 38.7 -27Q38.7 -24.15 36.95 -21.7Q35.2 -19.25 32.35 -18Q29.55 -16.8 23.55 -16.65L30.5 -5.1Q31.05 -4.15 31.95 -3.2Q32.5 -2.55 33.3 -2.3Q34.15 -2.05 35.95 -2.1L35.5 0L28.45 0L18.9 -16.65L14.8 -16.65L12.25 -5.3Q12.05 -4.45 12.05 -3.9Q12.05 -3.3 12.45 -2.8Q12.85 -2.3 13.4 -2.2Q13.8 -2.1 16.15 -2.1L15.65 0L2 0L2.5 -2.1L3.25 -2.1Q5.15 -2.1 5.9 -2.4Q6.65 -2.7 7.1 -3.35Q7.55 -4 7.95 -5.9L13.15 -28.7Q13.45 -30.05 13.45 -30.8Q13.45 -31.9 12.7 -32.35Q12 -32.8 10.3 -32.8L9.4 -32.8L9.9 -34.9M18.3 -32.1L15.3 -19.05L22.15 -19.05Q27.05 -19.05 29.05 -19.85Q31.05 -20.65 32.35 -22.55Q33.65 -24.45 33.65 -26.85Q33.65 -28.6 32.8 -29.75Q32 -30.95 30.45 -31.5Q28.95 -32.1 25.4 -32.1L18.3 -32.1" />
</g>
<g id="PathID_18" transform="matrix(0.3125, 0, 0, 0.3125, 356.35, 173.1)" opacity="1">
</g>
<g id="PathID_19" transform="matrix(0.3125, 0, 0, 0.3125, 369.55, 173.1)" opacity="1">
<path style="fill:#FF6C08;fill-opacity:1" d="M9.15 -34.9L22.85 -34.9L22.4 -32.8L21.6 -32.8Q19.7 -32.8 18.95 -32.45Q18.2 -32.1 17.75 -31.35Q17.3 -30.6 16.85 -28.5L11.65 -5.85Q11.3 -4.35 11.3 -3.8Q11.3 -2.95 12.1 -2.4Q12.65 -2.1 14.25 -2.1L15.45 -2.1L14.9 0L1.25 0L1.7 -2.1L2.7 -2.1Q4.4 -2.1 5.15 -2.4Q5.9 -2.75 6.35 -3.4Q6.8 -4.05 7.2 -5.85L12.5 -29.05Q12.75 -30.25 12.75 -30.8Q12.75 -31.5 12.45 -31.95Q12.15 -32.4 11.6 -32.6Q11.05 -32.8 9.6 -32.8L8.7 -32.8L9.15 -34.9" />
</g>
<g id="PathID_20" transform="matrix(0.3125, 0, 0, 0.3125, 369.55, 173.1)" opacity="1">
</g>
<g id="PathID_21" transform="matrix(0.3125, 0, 0, 0.3125, 376.65, 173.1)" opacity="1">
<path style="fill:#FF6C08;fill-opacity:1" d="M33.75 -34.9L35.6 -34.9L35.75 -23.85L33.3 -23.85Q32.35 -27.55 29.45 -30.15Q26.55 -32.75 22.2 -32.75Q19.8 -32.75 17.85 -31.85Q15.9 -31 14.9 -29.55Q13.95 -28.15 13.95 -26.8Q13.95 -25.6 14.55 -24.55Q15.2 -23.5 16.7 -22.55Q18.25 -21.6 22 -20.3Q27.55 -18.35 29.55 -17Q31.6 -15.65 32.6 -13.9Q33.65 -12.2 33.65 -10.25Q33.65 -7.55 31.9 -4.95Q30.15 -2.4 27.05 -0.9Q23.95 0.6 19.8 0.6Q16.5 0.6 14 -0.3Q11.55 -1.25 8.9 -3.6L6.8 0L5.15 0L5.7 -12.8L8.05 -12.8Q8.95 -7.75 12.1 -4.95Q15.25 -2.15 19.75 -2.15Q23.9 -2.15 26.8 -4.45Q29.2 -6.35 29.2 -9.1Q29.2 -10.8 28.25 -12.05Q27.3 -13.35 25 -14.5Q23.7 -15.1 18.75 -16.85Q14.1 -18.55 12.3 -20.3Q9.8 -22.85 9.8 -26Q9.8 -28.3 11.3 -30.5Q12.85 -32.7 15.8 -34.1Q18.8 -35.5 22.5 -35.5Q25.3 -35.5 27.55 -34.7Q29.8 -33.9 32.05 -32.15L33.75 -34.9" />
</g>
<g id="PathID_22" transform="matrix(0.3125, 0, 0, 0.3125, 376.65, 173.1)" opacity="1">
</g>
<g id="PathID_23" transform="matrix(0.3125, 0, 0, 0.3125, 388.9, 173.1)" opacity="1">
<path style="fill:#FF6C08;fill-opacity:1" d="M9.9 -34.9L35 -34.9L37.9 -25.65L35.6 -24.95Q34.55 -27.75 33.2 -29.2Q31.9 -30.7 30.3 -31.3Q28.15 -32.05 24.7 -32.05L18.25 -32.05L15.35 -19.3L19.35 -19.3Q21.9 -19.3 23.1 -19.85Q24.3 -20.4 25.15 -21.6Q26 -22.85 26.45 -25.2L28.9 -25.2L25.7 -11L23.25 -11Q23.6 -12.9 23.6 -13.65Q23.6 -14.65 23.05 -15.4Q22.55 -16.2 21.7 -16.55Q20.9 -16.9 18.65 -16.9L14.8 -16.9L11.95 -4.35L11.8 -3.45Q11.8 -3 12.2 -2.75Q12.45 -2.65 13.75 -2.65L19.3 -2.65Q23.4 -2.65 25.95 -3.5Q28.55 -4.4 30.35 -6.05Q32.15 -7.75 34.5 -11.9L36.7 -11L31.4 0L2 0L2.5 -2.1Q5.05 -2.1 5.75 -2.35Q6.5 -2.6 6.9 -3.15Q7.55 -4.05 7.9 -5.75L13.2 -28.95Q13.5 -30.2 13.5 -30.7Q13.5 -31.9 12.75 -32.35Q12 -32.8 10.25 -32.8L9.45 -32.8L9.9 -34.9" />
</g>
<g id="PathID_24" transform="matrix(0.3125, 0, 0, 0.3125, 388.9, 173.1)" opacity="1">
</g>
<g id="PathID_25" transform="matrix(0.3125, 0, 0, 0.3125, 401.75, 173.1)" opacity="1">
<path style="fill:#FF6C08;fill-opacity:1" d="M33.75 -34.9L35.6 -34.9L35.75 -23.85L33.3 -23.85Q32.35 -27.55 29.45 -30.15Q26.55 -32.75 22.2 -32.75Q19.8 -32.75 17.85 -31.85Q15.9 -31 14.9 -29.55Q13.95 -28.15 13.95 -26.8Q13.95 -25.6 14.55 -24.55Q15.2 -23.5 16.7 -22.55Q18.25 -21.6 22 -20.3Q27.55 -18.35 29.55 -17Q31.6 -15.65 32.6 -13.9Q33.65 -12.2 33.65 -10.25Q33.65 -7.55 31.9 -4.95Q30.15 -2.4 27.05 -0.9Q23.95 0.6 19.8 0.6Q16.5 0.6 14 -0.3Q11.55 -1.25 8.9 -3.6L6.8 0L5.15 0L5.7 -12.8L8.05 -12.8Q8.95 -7.75 12.1 -4.95Q15.25 -2.15 19.75 -2.15Q23.9 -2.15 26.8 -4.45Q29.2 -6.35 29.2 -9.1Q29.2 -10.8 28.25 -12.05Q27.3 -13.35 25 -14.5Q23.7 -15.1 18.75 -16.85Q14.1 -18.55 12.3 -20.3Q9.8 -22.85 9.8 -26Q9.8 -28.3 11.3 -30.5Q12.85 -32.7 15.8 -34.1Q18.8 -35.5 22.5 -35.5Q25.3 -35.5 27.55 -34.7Q29.8 -33.9 32.05 -32.15L33.75 -34.9" />
</g>
<g id="PathID_26" transform="matrix(0.3125, 0, 0, 0.3125, 401.75, 173.1)" opacity="1">
</g>
<g id="PathID_27" transform="matrix(0.507813, 8.87888e-008, -8.87888e-008, 0.507813, 215.5, 157.75)" opacity="1">
<path style="fill:#FF6C08;fill-opacity:1" d="M33.75 -34.9L35.6 -34.9L35.75 -23.85L33.3 -23.85Q32.35 -27.55 29.45 -30.15Q26.55 -32.75 22.2 -32.75Q19.8 -32.75 17.85 -31.85Q15.9 -31 14.9 -29.55Q13.95 -28.15 13.95 -26.8Q13.95 -25.6 14.55 -24.55Q15.2 -23.5 16.7 -22.55Q18.25 -21.6 22 -20.3Q27.55 -18.35 29.55 -17Q31.6 -15.65 32.6 -13.9Q33.65 -12.2 33.65 -10.25Q33.65 -7.55 31.9 -4.95Q30.15 -2.4 27.05 -0.9Q23.95 0.6 19.8 0.6Q16.5 0.6 14 -0.3Q11.55 -1.25 8.9 -3.6L6.8 0L5.15 0L5.7 -12.8L8.05 -12.8Q8.95 -7.75 12.1 -4.95Q15.25 -2.15 19.75 -2.15Q23.9 -2.15 26.8 -4.45Q29.2 -6.35 29.2 -9.1Q29.2 -10.8 28.25 -12.05Q27.3 -13.35 25 -14.5Q23.7 -15.1 18.75 -16.85Q14.1 -18.55 12.3 -20.3Q9.8 -22.85 9.8 -26Q9.8 -28.3 11.3 -30.5Q12.85 -32.7 15.8 -34.1Q18.8 -35.5 22.5 -35.5Q25.3 -35.5 27.55 -34.7Q29.8 -33.9 32.05 -32.15L33.75 -34.9" />
</g>
<g id="PathID_28" transform="matrix(0.507813, 8.87888e-008, -8.87888e-008, 0.507813, 215.5, 157.75)" opacity="1">
</g>
<g id="PathID_29" transform="matrix(0.507813, 8.87888e-008, -8.87888e-008, 0.507813, 234.15, 157.75)" opacity="1">
<path style="fill:#FF6C08;fill-opacity:1" d="M9.9 -34.9L23.65 -34.9L23.15 -32.8L22.05 -32.8Q20.25 -32.8 19.55 -32.45Q18.9 -32.15 18.5 -31.4Q17.95 -30.45 17.55 -28.5L15.45 -19.25L34.2 -19.25L36.45 -29.1Q36.8 -30.65 36.8 -31Q36.8 -31.55 36.4 -32.05Q36 -32.55 35.4 -32.7Q35.05 -32.8 32.65 -32.8L33.2 -34.9L46.95 -34.9L46.45 -32.8L45.25 -32.8Q43.65 -32.8 42.9 -32.45Q42.15 -32.1 41.7 -31.45Q41.3 -30.8 40.85 -28.8L35.55 -5.6Q35.35 -4.6 35.35 -4.05Q35.35 -3 36.15 -2.45Q36.65 -2.1 38.4 -2.1L39.5 -2.1L39 0L25.2 0L25.7 -2.1L26.6 -2.1Q28.1 -2.1 28.7 -2.25Q29.3 -2.4 29.75 -2.75Q30.2 -3.15 30.5 -3.75Q30.85 -4.35 31.1 -5.6L33.6 -16.55L14.8 -16.55L12.35 -5.7Q12.05 -4.5 12.05 -3.85Q12.05 -3.3 12.4 -2.85Q12.8 -2.4 13.5 -2.2Q13.95 -2.1 16.15 -2.1L15.7 0L1.9 0L2.45 -2.1L3.25 -2.1Q4.75 -2.1 5.4 -2.25Q6.05 -2.45 6.5 -2.8Q6.95 -3.2 7.2 -3.65Q7.6 -4.55 7.95 -6L13.15 -28.8Q13.45 -30.25 13.45 -30.9Q13.45 -31.45 13.15 -31.95Q12.85 -32.45 12.35 -32.6Q11.9 -32.8 10.45 -32.8L9.35 -32.8L9.9 -34.9" />
</g>
<g id="PathID_30" transform="matrix(0.507813, 8.87888e-008, -8.87888e-008, 0.507813, 234.15, 157.75)" opacity="1">
</g>
<g id="PathID_31" transform="matrix(0.507813, 8.87888e-008, -8.87888e-008, 0.507813, 256.9, 157.75)" opacity="1">
<path style="fill:#FF6C08;fill-opacity:1" d="M9.9 -34.9L27.25 -34.9Q31.75 -34.9 33.95 -33.95Q36.2 -33.05 37.45 -31.2Q38.7 -29.4 38.7 -27Q38.7 -24.15 36.95 -21.7Q35.2 -19.25 32.35 -18Q29.55 -16.8 23.55 -16.65L30.5 -5.1Q31.05 -4.15 31.95 -3.2Q32.5 -2.55 33.3 -2.3Q34.15 -2.05 35.95 -2.1L35.5 0L28.45 0L18.9 -16.65L14.8 -16.65L12.25 -5.3Q12.05 -4.45 12.05 -3.9Q12.05 -3.3 12.45 -2.8Q12.85 -2.3 13.4 -2.2Q13.8 -2.1 16.15 -2.1L15.65 0L2 0L2.5 -2.1L3.25 -2.1Q5.15 -2.1 5.9 -2.4Q6.65 -2.7 7.1 -3.35Q7.55 -4 7.95 -5.9L13.15 -28.7Q13.45 -30.05 13.45 -30.8Q13.45 -31.9 12.7 -32.35Q12 -32.8 10.3 -32.8L9.4 -32.8L9.9 -34.9M18.3 -32.1L15.3 -19.05L22.15 -19.05Q27.05 -19.05 29.05 -19.85Q31.05 -20.65 32.35 -22.55Q33.65 -24.45 33.65 -26.85Q33.65 -28.6 32.8 -29.75Q32 -30.95 30.45 -31.5Q28.95 -32.1 25.4 -32.1L18.3 -32.1" />
</g>
<g id="PathID_32" transform="matrix(0.507813, 8.87888e-008, -8.87888e-008, 0.507813, 256.9, 157.75)" opacity="1">
</g>
<g id="PathID_33" transform="matrix(0.507813, 8.87888e-008, -8.87888e-008, 0.507813, 277.1, 157.75)" opacity="1">
<path style="fill:#FF6C08;fill-opacity:1" d="M9.15 -34.9L22.85 -34.9L22.4 -32.8L21.6 -32.8Q19.7 -32.8 18.95 -32.45Q18.2 -32.1 17.75 -31.35Q17.3 -30.6 16.85 -28.5L11.65 -5.85Q11.3 -4.35 11.3 -3.8Q11.3 -2.95 12.1 -2.4Q12.65 -2.1 14.25 -2.1L15.45 -2.1L14.9 0L1.25 0L1.7 -2.1L2.7 -2.1Q4.4 -2.1 5.15 -2.4Q5.9 -2.75 6.35 -3.4Q6.8 -4.05 7.2 -5.85L12.5 -29.05Q12.75 -30.25 12.75 -30.8Q12.75 -31.5 12.45 -31.95Q12.15 -32.4 11.6 -32.6Q11.05 -32.8 9.6 -32.8L8.7 -32.8L9.15 -34.9" />
</g>
<g id="PathID_34" transform="matrix(0.507813, 8.87888e-008, -8.87888e-008, 0.507813, 277.1, 157.75)" opacity="1">
</g>
<g id="PathID_35" transform="matrix(0.507813, 8.87888e-008, -8.87888e-008, 0.507813, 287.4, 157.75)" opacity="1">
<path style="fill:#FF6C08;fill-opacity:1" d="M9.9 -34.9L27.25 -34.9Q31.75 -34.9 33.95 -33.95Q36.2 -33.05 37.45 -31.2Q38.7 -29.4 38.7 -27Q38.7 -24.15 36.95 -21.7Q35.2 -19.25 32.35 -18Q29.55 -16.8 23.55 -16.65L30.5 -5.1Q31.05 -4.15 31.95 -3.2Q32.5 -2.55 33.3 -2.3Q34.15 -2.05 35.95 -2.1L35.5 0L28.45 0L18.9 -16.65L14.8 -16.65L12.25 -5.3Q12.05 -4.45 12.05 -3.9Q12.05 -3.3 12.45 -2.8Q12.85 -2.3 13.4 -2.2Q13.8 -2.1 16.15 -2.1L15.65 0L2 0L2.5 -2.1L3.25 -2.1Q5.15 -2.1 5.9 -2.4Q6.65 -2.7 7.1 -3.35Q7.55 -4 7.95 -5.9L13.15 -28.7Q13.45 -30.05 13.45 -30.8Q13.45 -31.9 12.7 -32.35Q12 -32.8 10.3 -32.8L9.4 -32.8L9.9 -34.9M18.3 -32.1L15.3 -19.05L22.15 -19.05Q27.05 -19.05 29.05 -19.85Q31.05 -20.65 32.35 -22.55Q33.65 -24.45 33.65 -26.85Q33.65 -28.6 32.8 -29.75Q32 -30.95 30.45 -31.5Q28.95 -32.1 25.4 -32.1L18.3 -32.1" />
</g>
<g id="PathID_36" transform="matrix(0.507813, 8.87888e-008, -8.87888e-008, 0.507813, 287.4, 157.75)" opacity="1">
</g>
<g id="PathID_37" transform="matrix(0.507813, 8.87888e-008, -8.87888e-008, 0.507813, 307.6, 157.75)" opacity="1">
<path style="fill:#FF6C08;fill-opacity:1" d="M23.05 -34.9L27.3 -34.9L32.4 -5.7Q32.75 -3.9 33.1 -3.25Q33.5 -2.6 34.05 -2.35Q34.6 -2.1 36.25 -2.1L35.8 0L23.05 0L23.6 -2.1L25 -2.1Q26.7 -2.1 27.35 -2.65Q28.05 -3.2 28.05 -4.2L27.9 -5.9L26.7 -12.95L13.35 -12.95L8.85 -5.05Q8.3 -4.1 8.3 -3.4Q8.3 -2.75 8.8 -2.4Q9.3 -2.1 10.95 -2.1L12.15 -2.1L11.65 0L0 0L0.5 -2.1Q2.2 -2.1 2.9 -2.35Q3.6 -2.65 4.15 -3.2Q4.7 -3.8 5.95 -5.9L23.05 -34.9M26.3 -15.4L23.7 -30.9L14.85 -15.4L26.3 -15.4" />
</g>
<g id="PathID_38" transform="matrix(0.507813, 8.87888e-008, -8.87888e-008, 0.507813, 307.6, 157.75)" opacity="1">
</g>
<g id="PathID_39" transform="matrix(0.507813, 8.87888e-008, -8.87888e-008, 0.507813, 327.8, 157.75)" opacity="1">
<path style="fill:#FF6C08;fill-opacity:1" d="M10.75 -34.9L21.7 -34.9L24.6 -6.85L40.2 -34.9L51.2 -34.9L50.7 -32.8L49.35 -32.8Q48.1 -32.8 47.45 -32.55Q46.8 -32.3 46.35 -31.8Q45.95 -31.35 45.7 -30.45Q45.25 -29.15 45.15 -28.6L39.8 -5Q39.65 -4.35 39.65 -3.95Q39.65 -2.95 40.4 -2.45Q40.9 -2.1 42.5 -2.1L43.75 -2.1L43.3 0L29.55 0L30.05 -2.1L31.15 -2.1Q32.8 -2.1 33.45 -2.35Q34.15 -2.65 34.65 -3.3Q35.15 -4 35.4 -5.3L41.45 -32L23.6 0L21.2 0L17.95 -32.25L11.8 -5.3Q11.6 -4.45 11.6 -4.05Q11.6 -3.5 11.9 -2.95Q12.1 -2.55 12.6 -2.3Q13.15 -2.1 13.85 -2.1L15.8 -2.1L15.35 0L2.9 0L3.45 -2.1L4.85 -2.1Q6.7 -2.1 7.55 -2.75Q8.4 -3.45 8.85 -5.45L14.25 -29.15Q14.4 -29.75 14.4 -30.65Q14.4 -31.65 13.85 -32.2Q13.3 -32.8 12.3 -32.8L11.75 -32.8L10.3 -32.8L10.75 -34.9" />
</g>
<g id="PathID_40" transform="matrix(0.507813, 8.87888e-008, -8.87888e-008, 0.507813, 327.8, 157.75)" opacity="1">
</g>
</svg>
